<svg xmlns="http://www.w3.org/2000/svg" xmlns:xlink="http://www.w3.org/1999/xlink" fill="none" version="1.1" width="16" height="16" viewBox="0 0 16 16"><defs><clipPath id="master_svg0_0_1986/0_2805"><rect x="0" y="0" width="16" height="16" rx="0"/></clipPath></defs><g clip-path="url(#master_svg0_0_1986/0_2805)"><g transform="matrix(-1,0,0,1,20,0)"><path d="M14.53033,4.53033Q14.635819999999999,4.424841,14.692910000000001,4.287013Q14.75,4.149184,14.75,4Q14.75,3.9261315,14.73559,3.853682Q14.72118,3.781233,14.692910000000001,3.712987Q14.66464,3.644742,14.6236,3.583322Q14.58256,3.521903,14.53033,3.46967Q14.478100000000001,3.417437,14.41668,3.376398Q14.355260000000001,3.335359,14.28701,3.30709Q14.21877,3.278822,14.14632,3.264411Q14.07387,3.25,14,3.25Q13.85082,3.25,13.71299,3.30709Q13.57516,3.364181,13.46967,3.46967L9.46967,7.46967Q9.417437,7.5219000000000005,9.376398,7.5833200000000005Q9.335359,7.6447400000000005,9.30709,7.71299Q9.278822,7.78123,9.264410999999999,7.853680000000001Q9.25,7.926130000000001,9.25,8Q9.25,8.07387,9.264410999999999,8.14632Q9.278822,8.21877,9.30709,8.28701Q9.335359,8.355260000000001,9.376398,8.41668Q9.417437,8.478100000000001,9.46967,8.53033L13.46928,12.52994L13.46967,12.53033Q13.57516,12.63582,13.71299,12.69291Q13.85082,12.75,14,12.75Q14.07387,12.75,14.14632,12.73559Q14.21877,12.72118,14.28701,12.69291Q14.355260000000001,12.66464,14.41668,12.6236Q14.478100000000001,12.58256,14.53033,12.53033Q14.58256,12.4781,14.6236,12.41668Q14.66464,12.35526,14.692910000000001,12.28701Q14.72118,12.21877,14.73559,12.14632Q14.75,12.07387,14.75,12Q14.75,11.850819999999999,14.692910000000001,11.71299Q14.635819999999999,11.57516,14.53033,11.46967L11.06066,8L14.53033,4.53033L14.53033,4.53033Z" fill-rule="evenodd" fill="#BDBDBD" fill-opacity="1"/></g></g></svg>