<svg xmlns="http://www.w3.org/2000/svg" xmlns:xlink="http://www.w3.org/1999/xlink" fill="none" version="1.1" width="24" height="24" viewBox="0 0 24 24"><defs><clipPath id="master_svg0_0_1997/0_2742"><rect x="0" y="0" width="24" height="24" rx="0"/></clipPath></defs><g clip-path="url(#master_svg0_0_1997/0_2742)"><g><path d="M15.6585,5.75258Q15.73896,5.68218,15.80271,5.59637Q15.86646,5.51056,15.91063,5.41322Q15.95481,5.31587,15.9774,5.21138Q16,5.1068999999999996,16,5Q16,4.901509,15.98078,4.80491Q15.96157,4.708311,15.92388,4.617316Q15.88619,4.526322,15.83147,4.44443Q15.77675,4.362537,15.70711,4.292893Q15.63746,4.223249,15.55557,4.16853Q15.47368,4.113811,15.38268,4.0761205Q15.29169,4.0384294,15.19509,4.0192147Q15.09849,4,15,4Q14.81833,4,14.64827,4.0638972Q14.47821,4.127794,14.3415,4.247423L14.34122,4.247664L6.341495,11.24742Q6.291324,11.291319999999999,6.247423,11.3415Q6.182566,11.41562,6.133416,11.500969999999999Q6.0842656999999996,11.58632,6.052711,11.67962Q6.0211563,11.77292,6.00840978,11.87058Q5.99566328,11.968250000000001,6.00221484,12.06652Q6.00876639,12.16479,6.0343642,12.2599Q6.059962,12.355,6.103622,12.44329Q6.147283,12.53158,6.207328,12.60965Q6.267373,12.68772,6.341495,12.75258L14.3415,19.7526Q14.47821,19.8722,14.64827,19.9361Q14.81833,20,15,20Q15.09849,20,15.19509,19.980800000000002Q15.29169,19.9616,15.38268,19.9239Q15.47368,19.886200000000002,15.55557,19.8315Q15.63746,19.776699999999998,15.70711,19.7071Q15.77675,19.6375,15.83147,19.5556Q15.88619,19.4737,15.92388,19.3827Q15.96157,19.2917,15.98078,19.1951Q16,19.0985,16,19Q16,18.8931,15.9774,18.788600000000002Q15.95481,18.6841,15.91063,18.5868Q15.86646,18.4894,15.80271,18.4036Q15.73896,18.3178,15.6585,18.2474L8.51859,12L15.65823,5.75282L15.6585,5.75258L15.6585,5.75258Z" fill-rule="evenodd" fill="#212121" fill-opacity="1"/></g></g></svg>