<svg xmlns="http://www.w3.org/2000/svg" xmlns:xlink="http://www.w3.org/1999/xlink" fill="none" version="1.1" width="16" height="16" viewBox="0 0 16 16"><defs><clipPath id="master_svg0_8_01113"><rect x="0" y="0" width="16" height="16" rx="0"/></clipPath></defs><g clip-path="url(#master_svg0_8_01113)"><g><path d="M5.074998064994812,13.298483923339845Q5.758588064994812,13.644983923339844,6.509948064994812,13.823583923339843Q7.261308064994812,14.002183923339844,8.035708064994811,14.002183923339844Q8.190398064994813,14.002183923339844,8.344888064994812,13.994983923339843Q8.499388064994811,13.987683923339844,8.653328064994813,13.973283923339844Q8.807268064994812,13.958883923339844,8.960278064994812,13.937183923339843Q9.113278064994812,13.915583923339844,9.264998064994812,13.886883923339843Q9.416708064994811,13.858083923339844,9.566758064994811,13.822283923339844Q9.716798064994812,13.786583923339844,9.864828064994812,13.743783923339844Q10.012848064994811,13.700983923339844,10.158488064994811,13.651383923339845Q10.304128064994812,13.601783923339843,10.447038064994812,13.545383923339843Q10.589948064994813,13.488983923339843,10.729778064994813,13.425983923339844Q10.869608064994813,13.362983923339844,11.006028064994812,13.293583923339844Q11.142448064994811,13.224083923339844,11.275118064994812,13.148383923339845Q11.407798064994813,13.072683923339843,11.536418064994812,12.990783923339844Q11.665028064994813,12.908983923339843,11.789298064994812,12.821183923339843Q11.913498064994812,12.733483923339843,12.033098064994812,12.639983923339845Q12.152698064994812,12.546583923339844,12.267298064994812,12.447583923339844Q12.381898064994813,12.348683923339843,12.491298064994812,12.244483923339844Q12.600598064994813,12.140383923339844,12.704498064994812,12.031183923339844Q12.808398064994812,11.922033923339844,12.906498064994812,11.808153923339844Q13.004698064994813,11.694273923339845,13.096798064994813,11.575943923339844Q13.188898064994811,11.457623923339844,13.274898064994812,11.335133923339844Q13.360798064994812,11.212643923339844,13.440298064994812,11.086283923339844Q13.519898064994813,10.959923923339844,13.592798064994811,10.830003923339843Q13.665698064994812,10.700083923339843,13.731798064994813,10.566903923339844Q13.797998064994813,10.433733923339844,13.857198064994812,10.297633923339843Q13.916398064994812,10.161523923339844,13.968498064994812,10.022823923339844Q14.020598064994813,9.884113923339843,14.065498064994811,9.743143923339844Q14.110398064994811,9.602163923339845,14.147998064994812,9.459263923339844Q14.185598064994812,9.316363923339843,14.215698064994813,9.171873923339843Q14.245898064994812,9.027383923339844,14.268598064994812,8.881663923339843Q14.291298064994812,8.735943923339843,14.306498064994813,8.589333923339844Q14.321598064994811,8.442723923339845,14.329198064994811,8.295583923339844Q14.336798064994811,8.148443923339844,14.336798064994811,8.001133923339843Q14.336798064994811,7.853813923339843,14.329198064994811,7.706673923339844Q14.321598064994811,7.559533923339844,14.306498064994813,7.412923923339844Q14.291298064994812,7.266313923339844,14.268598064994812,7.120593923339844Q14.245898064994812,6.974873923339843,14.215698064994813,6.830383923339844Q14.185598064994812,6.685893923339844,14.147998064994812,6.542993923339844Q14.110398064994811,6.400093923339844,14.065498064994811,6.259113923339844Q14.020598064994813,6.118143923339844,13.968498064994812,5.979433923339844Q13.916398064994812,5.840733923339844,13.857198064994812,5.7046239233398435Q13.797998064994813,5.568523923339844,13.731798064994813,5.435353923339844Q13.665698064994812,5.3021739233398435,13.592798064994811,5.172253923339843Q13.519898064994813,5.042333923339844,13.440298064994812,4.915973923339844Q13.360798064994812,4.789613923339844,13.274898064994812,4.667123923339844Q13.188898064994811,4.544633923339844,13.096798064994813,4.426313923339844Q13.004698064994813,4.307983923339844,12.906498064994812,4.194103923339844Q12.808398064994812,4.080223923339844,12.704498064994812,3.9710739233398438Q12.600598064994813,3.861913923339844,12.491298064994812,3.757753923339844Q12.381898064994813,3.653583923339844,12.267298064994812,3.5546439233398437Q12.152698064994812,3.455713923339844,12.033098064994812,3.3622539233398436Q11.913498064994812,3.268803923339844,11.789298064994812,3.1810439233398435Q11.665028064994813,3.0932839233398437,11.536418064994812,3.0114439233398436Q11.407798064994813,2.929596923339844,11.275118064994812,2.8538609233398438Q11.142448064994811,2.7781249233398437,11.006028064994812,2.7086799233398438Q10.869608064994813,2.6392349233398438,10.729778064994813,2.576248923339844Q10.589948064994813,2.5132619233398437,10.447038064994812,2.456885923339844Q10.304128064994812,2.4005099233398437,10.158488064994811,2.3508809233398438Q10.012848064994811,2.3012509233398437,9.864828064994812,2.2584869233398437Q9.716798064994812,2.2157229233398437,9.566758064994811,2.179927923339844Q9.416708064994811,2.1441329233398436,9.264998064994812,2.115391923339844Q9.113278064994812,2.0866521233398436,8.960278064994812,2.0650362233398436Q8.807268064994812,2.0434202233398437,8.653328064994813,2.028980623339844Q8.499388064994811,2.014540923339844,8.344888064994812,2.0073124433398437Q8.190398064994813,2.0000839233398438,8.035708064994811,2.0000839233398438Q7.881028064994812,2.0000839233398438,7.726528064994812,2.0073124433398437Q7.572038064994812,2.014540923339844,7.418098064994812,2.028980623339844Q7.264158064994812,2.0434202233398437,7.111148064994812,2.0650362233398436Q6.958138064994812,2.0866521233398436,6.806428064994812,2.115391923339844Q6.654718064994812,2.1441329233398436,6.504668064994812,2.179927923339844Q6.354618064994812,2.2157229233398437,6.206598064994812,2.2584869233398437Q6.058578064994812,2.3012509233398437,5.912938064994812,2.3508809233398438Q5.767298064994812,2.4005099233398437,5.624388064994812,2.456885923339844Q5.481478064994812,2.5132619233398437,5.341648064994812,2.576248923339844Q5.201808064994812,2.6392349233398438,5.065398064994811,2.7086799233398438Q4.928978064994812,2.7781249233398437,4.7962980649948115,2.8538609233398438Q4.663618064994812,2.929596923339844,4.535008064994813,3.0114439233398436Q4.4063980649948125,3.0932839233398437,4.2821480649948125,3.1810439233398435Q4.157908064994812,3.268803923339844,4.038338064994813,3.3622539233398436Q3.9187680649948122,3.455713923339844,3.804148064994812,3.5546439233398437Q3.689538064994812,3.653583923339844,3.580158064994812,3.757753923339844Q3.470788064994812,3.861913923339844,3.3669080649948118,3.9710739233398438Q3.263028064994812,4.080223923339844,3.164898064994812,4.194103923339844Q3.066768064994812,4.307983923339844,2.9746180649948117,4.426313923339844Q2.882478064994812,4.544633923339844,2.796538064994812,4.667123923339844Q2.710602064994812,4.789613923339844,2.631079064994812,4.915973923339844Q2.551556064994812,5.042333923339844,2.478639064994812,5.172253923339843Q2.405722064994812,5.3021739233398435,2.339586064994812,5.435353923339844Q2.273450064994812,5.568523923339844,2.214256064994812,5.7046239233398435Q2.155061064994812,5.840733923339844,2.102950064994812,5.979433923339844Q2.050839064994812,6.118143923339844,2.005936064994812,6.259113923339844Q1.961034064994812,6.400093923339844,1.923449064994812,6.542993923339844Q1.885864064994812,6.685893923339844,1.855687064994812,6.830383923339844Q1.825509864994812,6.974873923339843,1.802813164994812,7.120593923339844Q1.780116364994812,7.266313923339844,1.764954764994812,7.412923923339844Q1.749793164994812,7.559533923339844,1.742203264994812,7.706673923339844Q1.734613294994812,7.853813923339843,1.734613294994812,8.001133923339843Q1.734613294994812,8.704593923339843,1.905436064994812,9.388983923339843Q2.076259064994812,10.073373923339844,2.408642064994812,10.701583923339843L1.751604464994812,13.153683923339845Q1.728888333994812,13.238483923339844,1.728888336994812,13.326183923339844Q1.728888338994812,13.413983923339844,1.751604464994812,13.498783923339843Q1.774320564994812,13.583583923339845,1.818204764994812,13.659583923339843Q1.862089064994812,13.735583923339844,1.924150064994812,13.797683923339843Q1.986212064994812,13.859683923339844,2.062222064994812,13.903583923339843Q2.138231064994812,13.947483923339844,2.223009064994812,13.970183923339844Q2.307787064994812,13.992883923339845,2.395555064994812,13.992883923339845Q2.483323064994812,13.992883923339845,2.568101064994812,13.970183923339844L5.074998064994812,13.298483923339845ZM11.801598064994812,11.520373923339843Q10.245708064994812,13.002183923339844,8.035708064994811,13.002183923339844Q6.702148064994812,13.002183923339844,5.527158064994812,12.406483923339843L5.185828064994812,12.233483923339843L2.866958064994812,12.854783923339843L3.476218064994812,10.581053923339844L3.2925480649948122,10.233913923339843Q2.734618064994812,9.179413923339844,2.734608064994812,8.001133923339843Q2.734608064994812,5.943983923339844,4.269818064994812,4.4818839233398435Q5.825708064994812,3.0000839233398438,8.035708064994811,3.0000839233398438Q10.245708064994812,3.0000839233398438,11.801598064994812,4.4818839233398435Q13.336798064994811,5.943983923339844,13.336798064994811,8.001133923339843Q13.336798064994811,10.058273923339843,11.801598064994812,11.520373923339843Z" fill-rule="evenodd" fill="#9E9E9E" fill-opacity="1"/></g><g><g><ellipse cx="5.333536803722382" cy="7.999918639659882" rx="0.6666666865348816" ry="0.6666666865348816" fill="#9E9E9E" fill-opacity="1"/></g><g><ellipse cx="8.000040709972382" cy="7.999918639659882" rx="0.6666666865348816" ry="0.6666666865348816" fill="#9E9E9E" fill-opacity="1"/></g><g><ellipse cx="10.666788756847382" cy="7.999918639659882" rx="0.6666666865348816" ry="0.6666666865348816" fill="#9E9E9E" fill-opacity="1"/></g></g></g></svg>