<svg xmlns="http://www.w3.org/2000/svg" xmlns:xlink="http://www.w3.org/1999/xlink" fill="none" version="1.1" width="16" height="16" viewBox="0 0 16 16"><defs><clipPath id="master_svg0_0_1864"><rect x="0" y="0" width="16" height="16" rx="0"/></clipPath></defs><g clip-path="url(#master_svg0_0_1864)"><g><path d="M10.992431953125,2.338277693125C10.033071953125,2.357180553125,9.016571953125,2.778637953125,8.002051953125001,3.661841953125C6.985891953125,2.776773953125,5.968161953125,2.353923253125,5.007901953125,2.333990412125C3.907751953125,2.3111580531250002,2.988161953125,2.8199479531250002,2.353171953125,3.5605819531250003C1.120780953125,4.998031953125,0.843219953125,7.478641953125,2.4313719531249998,9.066921953125L6.400371953125,12.999451953125C7.298091953125,13.888951953125,8.705901953125,13.888951953125,9.603631953125,12.999451953125L13.570751953125,9.068861953125001L13.572651953125,9.066921953125C15.157851953125,7.481711953125,14.876651953125,5.002811953125001,13.645051953125,3.566341953125C13.010451953125,2.826038953125,12.091651953125,2.316623053125,10.992431953125,2.338277693125ZM7.345251953125,4.415911953125001Q6.130081953125,3.3575019531250003,4.987151953125,3.333771953125Q3.884471953125,3.310889953125,3.112341953125,4.211471953125Q2.364161953125,5.084141953125,2.334251953125,6.2821419531250005Q2.303246953125,7.524521953125,3.138511953125,8.359841953124999L7.104211953125,12.289131953125Q7.485171953125,12.666551953125,8.002001953125,12.666551953125Q8.518831953125,12.666551953125,8.899801953125,12.289121953125L12.865551953125,8.359771953125L12.866851953125,8.358491953125Q13.697751953125,7.521611953125,13.665451953125,6.286991953125Q13.634151953125,5.089971953125,12.885951953125,4.217221953125Q12.113651953125,3.316382953125,11.012121953125,3.338081953125Q9.871111953125,3.360561953125,8.658661953125,4.4160819531249995L8.001881953125,4.987841953125L7.345251953125,4.415911953125001Z" fill-rule="evenodd" fill="#9E9E9E" fill-opacity="1"/></g></g></svg>