<svg xmlns="http://www.w3.org/2000/svg" xmlns:xlink="http://www.w3.org/1999/xlink" fill="none" version="1.1" width="24" height="24" viewBox="0 0 24 24"><defs><clipPath id="master_svg0_0_3014/0_2740"><rect x="0" y="0" width="24" height="24" rx="0"/></clipPath></defs><g clip-path="url(#master_svg0_0_3014/0_2740)"><g><ellipse cx="12" cy="12" rx="8" ry="8" fill-opacity="0" stroke-opacity="1" stroke="#212121" fill="none" stroke-width="2"/></g><g><path d="M9.36138,10.47579C9.36138,11.84313,10.54264,12.95158,11.99982,12.95158C13.457,12.95158,14.63827,11.84313,14.63827,10.47579C14.63827,9.10845,13.457,8,11.99982,8C10.54264,8,9.36138,9.10845,9.36138,10.47579ZM7.0384552,17.09357C6.9671593,17.27778,6.99611844,17.48314,7.11603,17.64366C7.235941,17.804180000000002,7.431762,19,7.64069,19L16.35924,18.9999C16.56824,18.9999,16.764029999999998,17.804180000000002,16.883969999999998,17.64366C17.0039,17.48314,17.032899999999998,17.27778,16.961489999999998,17.09345C16.22585,15.19164,14.28299,13.83153,11.99999,13.83153C9.71697,13.83153,7.774146,15.19164,7.0384552,17.09357Z" fill="#212121" fill-opacity="1"/></g></g></svg>