<svg xmlns="http://www.w3.org/2000/svg" xmlns:xlink="http://www.w3.org/1999/xlink" fill="none" version="1.1" width="24" height="24" viewBox="0 0 24 24"><defs><clipPath id="master_svg0_0_3014/0_2739"><rect x="0" y="0" width="24" height="24" rx="0"/></clipPath></defs><g clip-path="url(#master_svg0_0_3014/0_2739)"><g><path d="M5.01785,10.78568C5.01785,7.6002,7.6002,5.01785,10.78568,5.01785C13.9712,5.01785,16.5535,7.6002,16.5535,10.78568C16.5535,13.9712,13.9712,16.5535,10.78568,16.5535C7.6002,16.5535,5.01785,13.9712,5.01785,10.78568ZM10.78568,3.5C6.76191,3.5,3.5,6.76191,3.5,10.78568C3.5,14.8094,6.76191,18.0714,10.78568,18.0714C12.24841,18.0714,13.6105,17.6403,14.7517,16.8982C14.7517,16.8982,17.9089,20.0555,17.9089,20.0555C18.5016,20.6482,19.462699999999998,20.6482,20.0555,20.0555C20.6482,19.462699999999998,20.6482,18.5016,20.0555,17.9089C20.0555,17.9089,16.8982,14.7517,16.8982,14.7517C17.6403,13.6105,18.0714,12.24841,18.0714,10.78568C18.0714,6.76191,14.8094,3.5,10.78568,3.5Z" fill-rule="evenodd" fill="#212121" fill-opacity="1"/></g><g><ellipse cx="10.5" cy="10.5" rx="6.5" ry="6.5" fill-opacity="0" stroke-opacity="1" stroke="#212121" fill="none" stroke-width="2"/></g></g></svg>