<svg xmlns="http://www.w3.org/2000/svg" xmlns:xlink="http://www.w3.org/1999/xlink" fill="none" version="1.1" width="16" height="16" viewBox="0 0 16 16"><defs><clipPath id="master_svg0_0_2921"><rect x="0" y="0" width="16" height="16" rx="0"/></clipPath></defs><g clip-path="url(#master_svg0_0_2921)"><g><g><path d="M2.919698433036804,7.59113C2.849458433036804,7.68956,2.799858433036804,7.83467,2.799858433036804,8.00014C2.799858433036804,8.16562,2.849458433036804,8.31071,2.919698433036804,8.40916C3.372188433036804,9.016300000000001,4.102318433036804,9.895019999999999,5.0052284330368035,10.61769C5.916718433036804,11.34721,6.944318433036805,11.87003,8.000218433036803,11.87003C9.056128433036804,11.87003,10.083728433036804,11.34721,10.995188433036803,10.61769C11.898178433036804,9.895019999999999,12.628178433036805,9.01631,13.080678433036804,8.40916C13.150978433036805,8.31073,13.200578433036805,8.16563,13.200578433036805,8.00014C13.200578433036805,7.83466,13.150978433036805,7.68956,13.080678433036804,7.59111C12.628178433036805,6.983969999999999,11.898178433036804,6.1052599999999995,10.995188433036803,5.3826C10.083728433036804,4.65304,9.056128433036804,4.13028,8.000218433036803,4.13028C6.944318433036805,4.13028,5.916718433036804,4.65304,5.0052284330368035,5.3826C4.102318433036804,6.10527,3.372188433036804,6.98399,2.919698433036804,7.59113ZM4.298938433036804,4.50016C5.302568433036804,3.696859,6.576678433036804,3,8.000218433036803,3C9.423768433036805,3,10.697878433036804,3.696859,11.701478433036804,4.50016C12.711878433036803,5.30886,13.509078433036803,6.27409,13.989978433036804,6.91971C13.989978433036804,6.91971,13.994678433036805,6.92601,13.994678433036805,6.92601C14.218178433036805,7.235,14.330878433036805,7.6182,14.330878433036805,8.00014C14.330878433036805,8.382069999999999,14.218178433036805,8.76525,13.994678433036805,9.07424C13.994678433036805,9.07424,13.990078433036803,9.08061,13.990078433036803,9.08061C13.509178433036805,9.726230000000001,12.711878433036803,10.69143,11.701478433036804,11.50011C10.697878433036804,12.30343,9.423768433036805,13.0003,8.000218433036803,13.0003C6.576678433036804,13.0003,5.302568433036804,12.30343,4.298938433036804,11.50011C3.2885584330368043,10.69143,2.4912804330368044,9.7262,2.0104344330368042,9.08057C2.0104344330368042,9.08057,2.005743433036804,9.07428,2.005743433036804,9.07428C1.782220433036804,8.76529,1.6695784330368042,8.382069999999999,1.6695784330368042,8.00014C1.6695784330368042,7.6182,1.7822644330368043,7.23503,2.005788433036804,6.92604C2.005788433036804,6.92604,2.0103904330368043,6.91968,2.0103904330368043,6.91968C2.4912354330368043,6.27406,3.2885584330368043,5.30886,4.298938433036804,4.50016ZM8.000038433036805,5.73939C6.751568433036804,5.73939,5.739478433036804,6.75148,5.739478433036804,7.99995C5.739478433036804,9.24842,6.751568433036804,10.26051,8.000038433036805,10.26051C9.248508433036804,10.26051,10.260598433036805,9.24842,10.260598433036805,7.99995C10.260598433036805,6.75148,9.248508433036804,5.73939,8.000038433036805,5.73939Z" fill-rule="evenodd" fill="#BDBDBD" fill-opacity="1"/></g></g></g></svg>