<svg xmlns="http://www.w3.org/2000/svg" xmlns:xlink="http://www.w3.org/1999/xlink" fill="none" version="1.1" width="39.66666793823242" height="39.66666793823242" viewBox="0 0 39.66666793823242 39.66666793823242"><defs><clipPath id="master_svg0_0_2017"><rect x="0" y="0" width="39.66666793823242" height="39.66666793823242" rx="0"/></clipPath></defs><g clip-path="url(#master_svg0_0_2017)"><g><g transform="matrix(1,0,0,-1,0,78.341796875)"><path d="M19.74100234375,39.1708984375C19.80250234375,39.1708984375,19.864002343750002,39.1708984375,19.92550234375,39.1708984375C28.41450234375,39.1708984375,35.20410234375,46.1042184375,35.20410234375,54.593298437499996C35.20410234375,56.506798437499995,35.20410234375,58.286798437499996,35.20410234375,59.7094984375C35.20410234375,61.522498437500005,33.74580234375,62.9708984375,31.93280234375,62.9708984375C26.02490234375,62.9708984375,13.64152234375,62.9708984375,7.73366234375,62.9708984375C5.92064234375,62.9708984375,4.46240234375,61.522498437500005,4.46240234375,59.7094984375C4.46240234375,58.286798437499996,4.46240234375,56.506798437499995,4.46240234375,54.593298437499996C4.46240234375,46.1042184375,11.25193234375,39.1708984375,19.74100234375,39.1708984375" fill="#C6C7CC" fill-opacity="1"/></g><g><path d="M28.7600684375,21.816650390625Q28.7600684375,21.719143890625,28.7790884375,21.623511390625Q28.798108437499998,21.527878390625,28.8354284375,21.437793390625Q28.8727384375,21.347709390625,28.9269084375,21.266636390625Q28.9810784375,21.185562390625,29.0500284375,21.116614390625Q29.1189784375,21.047667390625,29.2000484375,20.993495390625Q29.2811284375,20.939323390625,29.3712084375,20.902009390625Q29.461288437500002,20.864695390625,29.556928437499998,20.845673390625Q29.652558437499998,20.826650390625,29.7500684375,20.826650390625Q29.8475684375,20.826650390625,29.9432084375,20.845673390625Q30.0388384375,20.864695390625,30.1289184375,20.902009390625Q30.2190084375,20.939323390625,30.300078437499998,20.993495390625Q30.381148437500002,21.047667390625,30.4500984375,21.116614390625Q30.5190484375,21.185562390625,30.5732184375,21.266636390625Q30.6273884375,21.347709390625,30.6647084375,21.437793390625Q30.7020184375,21.527878390625,30.7210384375,21.623511390625Q30.7400684375,21.719143890625,30.7400684375,21.816650390625L30.7417284375,21.816650390625Q30.7417284375,25.887480390625,29.6109284375,28.584010390625Q28.1347984375,32.104050390625,24.6986524375,33.631150390625L24.6979754375,33.629650390625Q24.5059904375,33.714950390625,24.2958984375,33.714950390625Q24.1983919375,33.714950390625,24.1027594375,33.695950390625Q24.0071264375,33.676950390625,23.9170414375,33.639650390625Q23.8269574375,33.602350390625,23.7458844375,33.548150390625Q23.6648104375,33.493950390625,23.5958624375,33.425050390625Q23.5269154375,33.356050390625,23.4727434375,33.274950390625Q23.4185714375,33.193950390625,23.3812574375,33.103850390625Q23.3439434375,33.013750390625,23.3249214375,32.918150390625Q23.3058984375,32.822450390625,23.3058984375,32.724950390625Q23.3058984375,32.581350390625,23.3467134375,32.443650390625Q23.3875274375,32.305950390625,23.4657914375,32.185550390625Q23.5440544375,32.065050390625004,23.6533144375,31.971850390625Q23.7625744375,31.878650390624998,23.8938214375,31.820350390625002L23.8931444375,31.818750390625Q26.610138437499998,30.611240390625,27.7819084375,27.817000390625Q28.7583984375,25.488450390625,28.7583984375,21.816650390625L28.7600684375,21.816650390625Z" fill-rule="evenodd" fill="#E1E3EA" fill-opacity="1"/></g><g><path d="M18.7062446875,0.495849609375C19.4080946875,0.495849609375,20.1789146875,0.495849609375,20.8854646875,0.495849609375C22.1370446875,0.495849609375,23.0697946875,1.666719609375,22.824344687500002,2.893989609375C22.691264687500002,3.559369609375,22.5501846875,4.264779609375,22.4291246875,4.870099609375C22.2437146875,5.797159609375,21.4521146875,6.445849609375,20.5067046875,6.445849609375C20.0254246875,6.445849609375,19.4968646875,6.445849609375,19.0123746875,6.445849609375C18.0428446875,6.445849609375,17.2407046875,5.766249609375,17.0813146875,4.809909609375C16.9793526875,4.198139609375,16.8614806875,3.490899609375,16.7510496875,2.828319609375C16.5495656875,1.619419609375,17.4806646875,0.495849609375,18.7062446875,0.495849609375" fill="#949398" fill-opacity="1"/></g><g><path d="M2.47900390625 10.908447265625C2.479003906250001 6.8008294387584725 5.808886079383474 3.470947265625 9.91650390625 3.470947265625L29.749835968017578 3.470947265625C33.8574537948841 3.470947265625 37.18733596801758 6.800829438758474 37.18733596801758 10.908447265625L37.18733596801758 12.395947456359863C37.18733596801758 15.682041612513128 34.5234303149057 18.345947265625 31.23733615875244 18.345947265625L8.429003715515137 18.345947265625C5.142909559361873 18.345947265625 2.47900390625 15.682041612513128 2.47900390625 12.395947456359863Z" fill="#949398" fill-opacity="1"/></g></g></g></svg>